Coordinates
version=1
nRows=21
nColumns=12
inDegrees=yes

Units are S.I. units (second, meters, Newtons, ...)
Angles are in degrees

endheader
time	SC_y	SC_z	SC_x	AC_y	AC_z	AC_x	GH_y	GH_z	GH_yy	EL_x	PS_y
       0.0              -58.64          19.35          72.59          61.99          7.762         -12.27          167.4          70.06         -138.5          40.73          56.19
  0.009962              -58.64          19.35          72.58          61.99          7.759         -12.27          167.4          70.06         -138.5          40.73           56.2
   0.01992              -58.64          19.35          72.57          61.98          7.756         -12.26          167.4          70.06         -138.4          40.73          56.22
   0.02988              -58.64          19.35          72.56          61.98          7.752         -12.26          167.3          70.05         -138.4          40.73          56.23
   0.03985              -58.64          19.35          72.55          61.97          7.749         -12.26          167.3          70.05         -138.4          40.73          56.24
   0.04981              -58.64          19.35          72.54          61.97          7.745         -12.26          167.3          70.05         -138.4          40.73          56.25
   0.05977              -58.64          19.35          72.52          61.96          7.741         -12.25          167.2          70.04         -138.3          40.73          56.27
   0.06973              -58.64          19.35          72.51          61.95          7.736         -12.25          167.2          70.04         -138.3          40.73          56.28
   0.07969              -58.64          19.34          72.49          61.95          7.731         -12.25          167.2          70.04         -138.2          40.72           56.3
   0.08965              -58.64          19.34          72.47          61.94          7.726         -12.24          167.1          70.03         -138.2          40.72          56.32
   0.09962              -58.64          19.34          72.46          61.93          7.721         -12.24          167.1          70.03         -138.2          40.72          56.34
    0.1096              -58.64          19.34          72.44          61.92          7.715         -12.24          167.0          70.02         -138.1          40.72          56.36
    0.1195              -58.64          19.34          72.42          61.92          7.708         -12.23          167.0          70.01         -138.1          40.72          56.38
    0.1295              -58.64          19.34          72.39          61.91          7.702         -12.23          166.9          70.01         -138.0          40.72           56.4
    0.1395              -58.64          19.34          72.37           61.9          7.694         -12.22          166.9           70.0         -137.9          40.72          56.43
    0.1494              -58.64          19.33          72.34          61.88          7.686         -12.22          166.8          69.99         -137.9          40.72          56.46
    0.1594              -58.64          19.33          72.31          61.87          7.677         -12.21          166.7          69.99         -137.8          40.72          56.49
    0.1693              -58.64          19.33          72.28          61.86          7.668          -12.2          166.6          69.98         -137.7          40.72          56.52
    0.1793              -58.64          19.33          72.25          61.84          7.657          -12.2          166.6          69.97         -137.6          40.72          56.55
    0.1893              -58.64          19.32          72.21          61.83          7.646         -12.19          166.5          69.96         -137.5          40.72          56.59
    0.1992              -58.64          19.32          72.17          61.81          7.633         -12.18          166.4          69.95         -137.4          40.72          56.64
